<svg width="66" height="66" viewBox="0 0 66 66" fill="none" xmlns="http://www.w3.org/2000/svg">
<path d="M10.289 55.0518C10.2913 55.0518 10.2936 55.0527 10.2953 55.0541C10.3094 55.0682 10.324 55.0818 10.3388 55.0955C10.4085 55.1606 10.5242 55.1497 10.5794 55.0732L12.7512 52.0558C14.8113 48.54 15.3756 45.1112 15.3972 42.2914C15.3972 40.8089 15.152 39.2881 14.7627 37.8357C14.4904 36.9672 14.2894 36.0709 14.1596 35.1674C14.1579 35.1556 14.1571 35.1465 14.1571 35.1346C14.1571 35.1233 14.1562 35.1087 14.1546 35.0973C14.0695 34.4965 14.0126 33.882 13.9841 33.2675C13.5875 23.2707 21.3842 15.0182 31.6548 14.0777C33.7445 14.141 37.4815 14.7014 40.5949 13.6899C43.6737 12.8368 46.4712 11.1528 48.8168 8.99825C48.881 8.93917 49.0084 8.87667 49.1213 8.81331C49.2906 8.71845 49.4181 8.54472 49.5601 8.41517L50.9201 7.1734C51.0622 7.04382 51.1423 6.86407 51.1423 6.67603V6.05772C51.1423 5.83482 51.0298 5.62526 50.8387 5.49876C42.1239 -0.270509 30.718 -1.81342 20.242 2.3747C3.60212 9.01582 -4.37171 27.5992 2.42699 43.8704C4.12848 47.9388 6.58694 51.4773 9.58614 54.3891C9.81601 54.6139 10.046 54.8315 10.283 55.0495C10.2846 55.0509 10.2868 55.0518 10.289 55.0518Z" fill="#C0C0C0"/>
<path d="M54.8506 9.56998C54.8483 9.56998 54.846 9.56907 54.8442 9.56748C54.8301 9.55364 54.8155 9.53976 54.801 9.52588C54.7318 9.46051 54.6162 9.4713 54.5615 9.54822L52.3999 12.5916C50.3498 16.1372 49.7881 19.5951 49.7667 22.4391C49.7667 23.9339 50.0107 25.4676 50.398 26.9323C50.6707 27.814 50.8719 28.7244 51.0007 29.6411C51.0007 29.6484 51.0007 29.6625 51.0007 29.677C51.0872 30.2883 51.1445 30.9138 51.1732 31.5396C51.5679 41.6213 43.8085 49.9442 33.5865 50.8928C31.5068 50.8287 27.7881 50.2638 24.6897 51.2838C21.6259 52.1441 18.8412 53.8424 16.5072 56.0154C16.4427 56.0755 16.314 56.1392 16.201 56.2034C16.034 56.2985 15.9096 56.4719 15.7698 56.6012L14.4114 57.8579C14.2715 57.9872 14.1926 58.1656 14.1926 58.3523V58.9868C14.1926 59.208 14.3037 59.4165 14.4927 59.5435C23.1657 65.3629 34.5183 66.9196 44.945 62.6951C61.5053 55.9976 69.4408 37.2562 62.6751 20.8464C60.9814 16.7437 58.5348 13.1747 55.5497 10.2382C55.3212 10.0115 55.0923 9.79215 54.8565 9.5723C54.8547 9.5708 54.8529 9.56998 54.8506 9.56998Z" fill="#C0C0C0"/>
</svg>
